<mxfile host="app.diagrams.net" modified="2024-04-21T22:00:12.673Z" agent="Mozilla/5.0 (Windows NT 10.0; Win64; x64) AppleWebKit/537.36 (KHTML, like Gecko) Chrome/123.0.0.0 Safari/537.36" etag="FAfhsGjwXmKqs10rqiaB" version="24.2.7" type="device">
  <diagram name="Страница — 1" id="hPco6SFU5F5d2rAjgARf">
    <mxGraphModel dx="1373" dy="707" grid="1" gridSize="10" guides="1" tooltips="1" connect="1" arrows="1" fold="1" page="1" pageScale="1" pageWidth="827" pageHeight="1169" math="0" shadow="0">
      <root>
        <mxCell id="0" />
        <mxCell id="1" parent="0" />
        <mxCell id="TDCsAm6xVufM_-a5kYYJ-26" value="" style="endArrow=none;dashed=1;html=1;rounded=0;entryX=0.5;entryY=1;entryDx=0;entryDy=0;jumpSize=7;strokeWidth=3;" parent="1" edge="1">
          <mxGeometry width="50" height="50" relative="1" as="geometry">
            <mxPoint x="700" y="560" as="sourcePoint" />
            <mxPoint x="699.5" y="140" as="targetPoint" />
          </mxGeometry>
        </mxCell>
        <mxCell id="TDCsAm6xVufM_-a5kYYJ-1" value="Пользователь" style="shape=umlActor;verticalLabelPosition=bottom;verticalAlign=top;html=1;outlineConnect=0;fontStyle=1" parent="1" vertex="1">
          <mxGeometry x="160" y="80" width="40" height="80" as="geometry" />
        </mxCell>
        <mxCell id="TDCsAm6xVufM_-a5kYYJ-2" value="Сайт" style="rounded=0;whiteSpace=wrap;html=1;fontStyle=5" parent="1" vertex="1">
          <mxGeometry x="360" y="80" width="120" height="60" as="geometry" />
        </mxCell>
        <mxCell id="TDCsAm6xVufM_-a5kYYJ-3" value="БД" style="rounded=0;whiteSpace=wrap;html=1;fontStyle=5" parent="1" vertex="1">
          <mxGeometry x="640" y="80" width="120" height="60" as="geometry" />
        </mxCell>
        <mxCell id="TDCsAm6xVufM_-a5kYYJ-4" value="" style="rounded=0;whiteSpace=wrap;html=1;" parent="1" vertex="1">
          <mxGeometry x="170" y="200" width="20" height="360" as="geometry" />
        </mxCell>
        <mxCell id="TDCsAm6xVufM_-a5kYYJ-6" value="" style="rounded=0;whiteSpace=wrap;html=1;" parent="1" vertex="1">
          <mxGeometry x="690" y="200" width="20" height="350" as="geometry" />
        </mxCell>
        <mxCell id="TDCsAm6xVufM_-a5kYYJ-8" value="ЗапросСозданияОтправкиФормы()&amp;nbsp;" style="text;html=1;align=center;verticalAlign=middle;resizable=0;points=[];autosize=1;strokeColor=none;fillColor=none;" parent="1" vertex="1">
          <mxGeometry x="190" y="205" width="220" height="30" as="geometry" />
        </mxCell>
        <mxCell id="TDCsAm6xVufM_-a5kYYJ-10" value="" style="endArrow=classic;html=1;rounded=0;exitX=1.015;exitY=0.111;exitDx=0;exitDy=0;exitPerimeter=0;entryX=-0.037;entryY=0.16;entryDx=0;entryDy=0;entryPerimeter=0;" parent="1" source="TDCsAm6xVufM_-a5kYYJ-4" target="TDCsAm6xVufM_-a5kYYJ-5" edge="1">
          <mxGeometry width="50" height="50" relative="1" as="geometry">
            <mxPoint x="290" y="290" as="sourcePoint" />
            <mxPoint x="340" y="240" as="targetPoint" />
          </mxGeometry>
        </mxCell>
        <mxCell id="TDCsAm6xVufM_-a5kYYJ-11" value="" style="endArrow=classic;html=1;rounded=0;exitX=-0.013;exitY=0.314;exitDx=0;exitDy=0;exitPerimeter=0;" parent="1" source="TDCsAm6xVufM_-a5kYYJ-5" edge="1">
          <mxGeometry width="50" height="50" relative="1" as="geometry">
            <mxPoint x="189" y="280" as="sourcePoint" />
            <mxPoint x="190" y="279" as="targetPoint" />
          </mxGeometry>
        </mxCell>
        <mxCell id="TDCsAm6xVufM_-a5kYYJ-12" value="ОтправкаФормы()" style="text;html=1;align=center;verticalAlign=middle;resizable=0;points=[];autosize=1;strokeColor=none;fillColor=none;" parent="1" vertex="1">
          <mxGeometry x="235" y="250" width="120" height="30" as="geometry" />
        </mxCell>
        <mxCell id="TDCsAm6xVufM_-a5kYYJ-13" value="" style="endArrow=classic;html=1;rounded=0;exitX=1.013;exitY=0.114;exitDx=0;exitDy=0;exitPerimeter=0;entryX=0.053;entryY=0.114;entryDx=0;entryDy=0;entryPerimeter=0;" parent="1" edge="1">
          <mxGeometry width="50" height="50" relative="1" as="geometry">
            <mxPoint x="189.5" y="360" as="sourcePoint" />
            <mxPoint x="410.5" y="360" as="targetPoint" />
          </mxGeometry>
        </mxCell>
        <mxCell id="TDCsAm6xVufM_-a5kYYJ-14" value="ОтправкаДанныхФормы()" style="text;html=1;align=center;verticalAlign=middle;resizable=0;points=[];autosize=1;strokeColor=none;fillColor=none;" parent="1" vertex="1">
          <mxGeometry x="205" y="328" width="170" height="30" as="geometry" />
        </mxCell>
        <mxCell id="TDCsAm6xVufM_-a5kYYJ-15" value="" style="endArrow=classic;html=1;rounded=0;exitX=1.013;exitY=0.114;exitDx=0;exitDy=0;exitPerimeter=0;entryX=-0.048;entryY=0.457;entryDx=0;entryDy=0;entryPerimeter=0;" parent="1" target="TDCsAm6xVufM_-a5kYYJ-6" edge="1">
          <mxGeometry width="50" height="50" relative="1" as="geometry">
            <mxPoint x="430" y="360" as="sourcePoint" />
            <mxPoint x="651" y="360" as="targetPoint" />
          </mxGeometry>
        </mxCell>
        <mxCell id="TDCsAm6xVufM_-a5kYYJ-16" value="ОтправкаДанныхФормы()" style="text;html=1;align=center;verticalAlign=middle;resizable=0;points=[];autosize=1;strokeColor=none;fillColor=none;" parent="1" vertex="1">
          <mxGeometry x="480" y="328" width="170" height="30" as="geometry" />
        </mxCell>
        <mxCell id="TDCsAm6xVufM_-a5kYYJ-17" value="" style="endArrow=classic;html=1;rounded=0;exitX=-0.083;exitY=0.227;exitDx=0;exitDy=0;exitPerimeter=0;entryX=1.005;entryY=0.789;entryDx=0;entryDy=0;entryPerimeter=0;dashed=1;" parent="1" target="TDCsAm6xVufM_-a5kYYJ-5" edge="1">
          <mxGeometry width="50" height="50" relative="1" as="geometry">
            <mxPoint x="689.66" y="396.55" as="sourcePoint" />
            <mxPoint x="429.99999999999994" y="398.00000000000006" as="targetPoint" />
          </mxGeometry>
        </mxCell>
        <mxCell id="TDCsAm6xVufM_-a5kYYJ-18" value="ПодтверждениеДоставки()" style="text;html=1;align=center;verticalAlign=middle;resizable=0;points=[];autosize=1;strokeColor=none;fillColor=none;" parent="1" vertex="1">
          <mxGeometry x="480" y="368" width="170" height="30" as="geometry" />
        </mxCell>
        <mxCell id="TDCsAm6xVufM_-a5kYYJ-19" value="" style="endArrow=classic;html=1;rounded=0;exitX=-0.083;exitY=0.227;exitDx=0;exitDy=0;exitPerimeter=0;entryX=1.117;entryY=0.227;entryDx=0;entryDy=0;entryPerimeter=0;" parent="1" edge="1">
          <mxGeometry width="50" height="50" relative="1" as="geometry">
            <mxPoint x="410" y="397" as="sourcePoint" />
            <mxPoint x="194" y="397" as="targetPoint" />
          </mxGeometry>
        </mxCell>
        <mxCell id="TDCsAm6xVufM_-a5kYYJ-20" value="ОтправкаСообщенияОСохранении()" style="text;html=1;align=center;verticalAlign=middle;resizable=0;points=[];autosize=1;strokeColor=none;fillColor=none;" parent="1" vertex="1">
          <mxGeometry x="182" y="368" width="230" height="30" as="geometry" />
        </mxCell>
        <mxCell id="TDCsAm6xVufM_-a5kYYJ-21" value="" style="endArrow=classic;html=1;rounded=0;exitX=1.013;exitY=0.114;exitDx=0;exitDy=0;exitPerimeter=0;entryX=0.003;entryY=0.83;entryDx=0;entryDy=0;entryPerimeter=0;" parent="1" target="TDCsAm6xVufM_-a5kYYJ-6" edge="1">
          <mxGeometry width="50" height="50" relative="1" as="geometry">
            <mxPoint x="191" y="492" as="sourcePoint" />
            <mxPoint x="412" y="492" as="targetPoint" />
          </mxGeometry>
        </mxCell>
        <mxCell id="TDCsAm6xVufM_-a5kYYJ-22" value="ЗапросПросмотраДанныхФормы()" style="text;html=1;align=center;verticalAlign=middle;resizable=0;points=[];autosize=1;strokeColor=none;fillColor=none;" parent="1" vertex="1">
          <mxGeometry x="315" y="460" width="210" height="30" as="geometry" />
        </mxCell>
        <mxCell id="TDCsAm6xVufM_-a5kYYJ-23" value="" style="endArrow=classic;html=1;rounded=0;exitX=-0.05;exitY=0.912;exitDx=0;exitDy=0;exitPerimeter=0;entryX=1.08;entryY=0.895;entryDx=0;entryDy=0;entryPerimeter=0;" parent="1" source="TDCsAm6xVufM_-a5kYYJ-6" target="TDCsAm6xVufM_-a5kYYJ-4" edge="1">
          <mxGeometry width="50" height="50" relative="1" as="geometry">
            <mxPoint x="195" y="592" as="sourcePoint" />
            <mxPoint x="690" y="590" as="targetPoint" />
          </mxGeometry>
        </mxCell>
        <mxCell id="TDCsAm6xVufM_-a5kYYJ-24" value="ОтправкаДанныхФормы()" style="text;html=1;align=center;verticalAlign=middle;resizable=0;points=[];autosize=1;strokeColor=none;fillColor=none;" parent="1" vertex="1">
          <mxGeometry x="335" y="490" width="170" height="30" as="geometry" />
        </mxCell>
        <mxCell id="TDCsAm6xVufM_-a5kYYJ-25" value="" style="endArrow=none;dashed=1;html=1;rounded=0;entryX=0.5;entryY=1;entryDx=0;entryDy=0;jumpSize=7;strokeWidth=3;" parent="1" target="TDCsAm6xVufM_-a5kYYJ-2" edge="1">
          <mxGeometry width="50" height="50" relative="1" as="geometry">
            <mxPoint x="420" y="560" as="sourcePoint" />
            <mxPoint x="430" y="320" as="targetPoint" />
          </mxGeometry>
        </mxCell>
        <mxCell id="TDCsAm6xVufM_-a5kYYJ-5" value="" style="rounded=0;whiteSpace=wrap;html=1;" parent="1" vertex="1">
          <mxGeometry x="410" y="200" width="20" height="250" as="geometry" />
        </mxCell>
      </root>
    </mxGraphModel>
  </diagram>
</mxfile>
